<?xml version="1.0" encoding="UTF-8" standalone="no"?>
<!DOCTYPE svg PUBLIC "-//W3C//DTD SVG 1.1//EN"
 "http://www.w3.org/Graphics/SVG/1.1/DTD/svg11.dtd">
<!-- Generated by graphviz version 2.36.0 (20140111.2315)
 -->
<!-- Title: controllers_diagram Pages: 1 -->
<svg width="950pt" height="382pt"
 viewBox="0.00 0.00 950.00 382.00" xmlns="http://www.w3.org/2000/svg" xmlns:xlink="http://www.w3.org/1999/xlink">
<g id="graph0" class="graph" transform="scale(1 1) rotate(0) translate(4 378)">
<title>controllers_diagram</title>
<polygon fill="none" stroke="none" points="-4,4 -4,-378 946,-378 946,4 -4,4"/>
<!-- _diagram_info -->
<g id="node1" class="node"><title>_diagram_info</title>
<text text-anchor="start" x="204" y="-351.6" font-family="Times,serif" font-size="13.00">Controllers diagram</text>
<text text-anchor="start" x="204" y="-337.6" font-family="Times,serif" font-size="13.00">Date: Oct 24 2016 &#45; 22:56</text>
<text text-anchor="start" x="204" y="-323.6" font-family="Times,serif" font-size="13.00">Migration version: 20161020142159</text>
<text text-anchor="start" x="204" y="-309.6" font-family="Times,serif" font-size="13.00">Generated by RailRoady 1.5.2</text>
<text text-anchor="start" x="204" y="-295.6" font-family="Times,serif" font-size="13.00">http://railroady.prestonlee.com</text>
</g>
<!-- ApplicationController -->
<g id="node2" class="node"><title>ApplicationController</title>
<path fill="none" stroke="black" d="M440,-280.5C440,-280.5 556,-280.5 556,-280.5 562,-280.5 568,-286.5 568,-292.5 568,-292.5 568,-361.5 568,-361.5 568,-367.5 562,-373.5 556,-373.5 556,-373.5 440,-373.5 440,-373.5 434,-373.5 428,-367.5 428,-361.5 428,-361.5 428,-292.5 428,-292.5 428,-286.5 434,-280.5 440,-280.5"/>
<text text-anchor="middle" x="498" y="-358.3" font-family="Times,serif" font-size="14.00">ApplicationController</text>
<polyline fill="none" stroke="black" points="428,-350.5 568,-350.5 "/>
<text text-anchor="start" x="436" y="-335.3" font-family="Times,serif" font-size="14.00">after_sign_in_path_for</text>
<polyline fill="none" stroke="black" points="428,-327.5 568,-327.5 "/>
<polyline fill="none" stroke="black" points="428,-303.5 568,-303.5 "/>
<text text-anchor="start" x="436" y="-288.3" font-family="Times,serif" font-size="14.00">_layout</text>
</g>
<!-- RemindsController -->
<g id="node3" class="node"><title>RemindsController</title>
<path fill="none" stroke="black" d="M11.5,-8C11.5,-8 108.5,-8 108.5,-8 114.5,-8 120.5,-14 120.5,-20 120.5,-20 120.5,-224 120.5,-224 120.5,-230 114.5,-236 108.5,-236 108.5,-236 11.5,-236 11.5,-236 5.5,-236 -0.5,-230 -0.5,-224 -0.5,-224 -0.5,-20 -0.5,-20 -0.5,-14 5.5,-8 11.5,-8"/>
<text text-anchor="middle" x="60" y="-220.8" font-family="Times,serif" font-size="14.00">RemindsController</text>
<polyline fill="none" stroke="black" points="-0.5,-213 120.5,-213 "/>
<text text-anchor="start" x="7.5" y="-197.8" font-family="Times,serif" font-size="14.00">completed</text>
<text text-anchor="start" x="7.5" y="-182.8" font-family="Times,serif" font-size="14.00">create</text>
<text text-anchor="start" x="7.5" y="-167.8" font-family="Times,serif" font-size="14.00">destroy_multiple</text>
<text text-anchor="start" x="7.5" y="-152.8" font-family="Times,serif" font-size="14.00">edit</text>
<text text-anchor="start" x="7.5" y="-137.8" font-family="Times,serif" font-size="14.00">index</text>
<text text-anchor="start" x="7.5" y="-122.8" font-family="Times,serif" font-size="14.00">new</text>
<text text-anchor="start" x="7.5" y="-107.8" font-family="Times,serif" font-size="14.00">show</text>
<text text-anchor="start" x="7.5" y="-92.8" font-family="Times,serif" font-size="14.00">update</text>
<polyline fill="none" stroke="black" points="-0.5,-85 120.5,-85 "/>
<polyline fill="none" stroke="black" points="-0.5,-61 120.5,-61 "/>
<text text-anchor="start" x="7.5" y="-45.8" font-family="Times,serif" font-size="14.00">_layout</text>
<text text-anchor="start" x="7.5" y="-30.8" font-family="Times,serif" font-size="14.00">remind_params</text>
<text text-anchor="start" x="7.5" y="-15.8" font-family="Times,serif" font-size="14.00">set_remind</text>
</g>
<!-- ApplicationController&#45;&gt;RemindsController -->
<g id="edge1" class="edge"><title>ApplicationController&#45;&gt;RemindsController</title>
<path fill="none" stroke="black" d="M427.592,-283.577C424.396,-282.269 421.191,-281.068 418,-280 295.252,-238.93 236.682,-315.824 129,-244 125.379,-241.585 121.926,-238.911 118.635,-236.027"/>
</g>
<!-- StartpageController -->
<g id="node4" class="node"><title>StartpageController</title>
<path fill="none" stroke="black" d="M150.5,-75.5C150.5,-75.5 249.5,-75.5 249.5,-75.5 255.5,-75.5 261.5,-81.5 261.5,-87.5 261.5,-87.5 261.5,-156.5 261.5,-156.5 261.5,-162.5 255.5,-168.5 249.5,-168.5 249.5,-168.5 150.5,-168.5 150.5,-168.5 144.5,-168.5 138.5,-162.5 138.5,-156.5 138.5,-156.5 138.5,-87.5 138.5,-87.5 138.5,-81.5 144.5,-75.5 150.5,-75.5"/>
<text text-anchor="middle" x="200" y="-153.3" font-family="Times,serif" font-size="14.00">StartpageController</text>
<polyline fill="none" stroke="black" points="138.5,-145.5 261.5,-145.5 "/>
<text text-anchor="start" x="146.5" y="-130.3" font-family="Times,serif" font-size="14.00">index</text>
<polyline fill="none" stroke="black" points="138.5,-122.5 261.5,-122.5 "/>
<polyline fill="none" stroke="black" points="138.5,-98.5 261.5,-98.5 "/>
<text text-anchor="start" x="146.5" y="-83.3" font-family="Times,serif" font-size="14.00">_layout</text>
</g>
<!-- ApplicationController&#45;&gt;StartpageController -->
<g id="edge2" class="edge"><title>ApplicationController&#45;&gt;StartpageController</title>
<path fill="none" stroke="black" d="M427.875,-284.24C424.574,-282.731 421.273,-281.308 418,-280 355.139,-254.876 324.199,-284.561 270,-244 244.838,-225.169 227.22,-194.427 215.953,-168.642"/>
</g>
<!-- SearchController -->
<g id="node5" class="node"><title>SearchController</title>
<path fill="none" stroke="black" d="M291.5,-60.5C291.5,-60.5 410.5,-60.5 410.5,-60.5 416.5,-60.5 422.5,-66.5 422.5,-72.5 422.5,-72.5 422.5,-171.5 422.5,-171.5 422.5,-177.5 416.5,-183.5 410.5,-183.5 410.5,-183.5 291.5,-183.5 291.5,-183.5 285.5,-183.5 279.5,-177.5 279.5,-171.5 279.5,-171.5 279.5,-72.5 279.5,-72.5 279.5,-66.5 285.5,-60.5 291.5,-60.5"/>
<text text-anchor="middle" x="351" y="-168.3" font-family="Times,serif" font-size="14.00">SearchController</text>
<polyline fill="none" stroke="black" points="279.5,-160.5 422.5,-160.5 "/>
<text text-anchor="start" x="287.5" y="-145.3" font-family="Times,serif" font-size="14.00">isadmin</text>
<text text-anchor="start" x="287.5" y="-130.3" font-family="Times,serif" font-size="14.00">list_all_reminders</text>
<text text-anchor="start" x="287.5" y="-115.3" font-family="Times,serif" font-size="14.00">list_all_sent_reminders</text>
<polyline fill="none" stroke="black" points="279.5,-107.5 422.5,-107.5 "/>
<polyline fill="none" stroke="black" points="279.5,-83.5 422.5,-83.5 "/>
<text text-anchor="start" x="287.5" y="-68.3" font-family="Times,serif" font-size="14.00">_layout</text>
</g>
<!-- ApplicationController&#45;&gt;SearchController -->
<g id="edge3" class="edge"><title>ApplicationController&#45;&gt;SearchController</title>
<path fill="none" stroke="black" d="M459.93,-280.154C450.593,-268.516 440.766,-255.927 432,-244 417.853,-224.751 403.112,-203.225 390.145,-183.726"/>
</g>
<!-- ProfilesController -->
<g id="node6" class="node"><title>ProfilesController</title>
<path fill="none" stroke="black" d="M453,-0.5C453,-0.5 543,-0.5 543,-0.5 549,-0.5 555,-6.5 555,-12.5 555,-12.5 555,-231.5 555,-231.5 555,-237.5 549,-243.5 543,-243.5 543,-243.5 453,-243.5 453,-243.5 447,-243.5 441,-237.5 441,-231.5 441,-231.5 441,-12.5 441,-12.5 441,-6.5 447,-0.5 453,-0.5"/>
<text text-anchor="middle" x="498" y="-228.3" font-family="Times,serif" font-size="14.00">ProfilesController</text>
<polyline fill="none" stroke="black" points="441,-220.5 555,-220.5 "/>
<text text-anchor="start" x="449" y="-205.3" font-family="Times,serif" font-size="14.00">checkprofile</text>
<text text-anchor="start" x="449" y="-190.3" font-family="Times,serif" font-size="14.00">create</text>
<text text-anchor="start" x="449" y="-175.3" font-family="Times,serif" font-size="14.00">destroy</text>
<text text-anchor="start" x="449" y="-160.3" font-family="Times,serif" font-size="14.00">edit</text>
<text text-anchor="start" x="449" y="-145.3" font-family="Times,serif" font-size="14.00">index</text>
<text text-anchor="start" x="449" y="-130.3" font-family="Times,serif" font-size="14.00">isadmin</text>
<text text-anchor="start" x="449" y="-115.3" font-family="Times,serif" font-size="14.00">new</text>
<text text-anchor="start" x="449" y="-100.3" font-family="Times,serif" font-size="14.00">show</text>
<text text-anchor="start" x="449" y="-85.3" font-family="Times,serif" font-size="14.00">update</text>
<polyline fill="none" stroke="black" points="441,-77.5 555,-77.5 "/>
<polyline fill="none" stroke="black" points="441,-53.5 555,-53.5 "/>
<text text-anchor="start" x="449" y="-38.3" font-family="Times,serif" font-size="14.00">_layout</text>
<text text-anchor="start" x="449" y="-23.3" font-family="Times,serif" font-size="14.00">profile_params</text>
<text text-anchor="start" x="449" y="-8.3" font-family="Times,serif" font-size="14.00">set_profile</text>
</g>
<!-- ApplicationController&#45;&gt;ProfilesController -->
<g id="edge4" class="edge"><title>ApplicationController&#45;&gt;ProfilesController</title>
<path fill="none" stroke="black" d="M498,-280.443C498,-269.221 498,-256.672 498,-243.688"/>
</g>
<!-- ContactsController -->
<g id="node7" class="node"><title>ContactsController</title>
<path fill="none" stroke="black" d="M585.5,-68C585.5,-68 680.5,-68 680.5,-68 686.5,-68 692.5,-74 692.5,-80 692.5,-80 692.5,-164 692.5,-164 692.5,-170 686.5,-176 680.5,-176 680.5,-176 585.5,-176 585.5,-176 579.5,-176 573.5,-170 573.5,-164 573.5,-164 573.5,-80 573.5,-80 573.5,-74 579.5,-68 585.5,-68"/>
<text text-anchor="middle" x="633" y="-160.8" font-family="Times,serif" font-size="14.00">ContactsController</text>
<polyline fill="none" stroke="black" points="573.5,-153 692.5,-153 "/>
<text text-anchor="start" x="581.5" y="-137.8" font-family="Times,serif" font-size="14.00">create</text>
<text text-anchor="start" x="581.5" y="-122.8" font-family="Times,serif" font-size="14.00">new</text>
<polyline fill="none" stroke="black" points="573.5,-115 692.5,-115 "/>
<polyline fill="none" stroke="black" points="573.5,-91 692.5,-91 "/>
<text text-anchor="start" x="581.5" y="-75.8" font-family="Times,serif" font-size="14.00">_layout</text>
</g>
<!-- ApplicationController&#45;&gt;ContactsController -->
<g id="edge5" class="edge"><title>ApplicationController&#45;&gt;ContactsController</title>
<path fill="none" stroke="black" d="M537.022,-280.152C546.238,-268.622 555.769,-256.083 564,-244 578.635,-222.515 593.146,-197.737 605.057,-176.221"/>
</g>
<!-- UsersController -->
<g id="node8" class="node"><title>UsersController</title>
<path fill="none" stroke="black" d="M722.5,-30.5C722.5,-30.5 801.5,-30.5 801.5,-30.5 807.5,-30.5 813.5,-36.5 813.5,-42.5 813.5,-42.5 813.5,-201.5 813.5,-201.5 813.5,-207.5 807.5,-213.5 801.5,-213.5 801.5,-213.5 722.5,-213.5 722.5,-213.5 716.5,-213.5 710.5,-207.5 710.5,-201.5 710.5,-201.5 710.5,-42.5 710.5,-42.5 710.5,-36.5 716.5,-30.5 722.5,-30.5"/>
<text text-anchor="middle" x="762" y="-198.3" font-family="Times,serif" font-size="14.00">UsersController</text>
<polyline fill="none" stroke="black" points="710.5,-190.5 813.5,-190.5 "/>
<text text-anchor="start" x="718.5" y="-175.3" font-family="Times,serif" font-size="14.00">destroy</text>
<text text-anchor="start" x="718.5" y="-160.3" font-family="Times,serif" font-size="14.00">index</text>
<text text-anchor="start" x="718.5" y="-145.3" font-family="Times,serif" font-size="14.00">isadmin</text>
<text text-anchor="start" x="718.5" y="-130.3" font-family="Times,serif" font-size="14.00">show</text>
<text text-anchor="start" x="718.5" y="-115.3" font-family="Times,serif" font-size="14.00">update</text>
<polyline fill="none" stroke="black" points="710.5,-107.5 813.5,-107.5 "/>
<polyline fill="none" stroke="black" points="710.5,-83.5 813.5,-83.5 "/>
<text text-anchor="start" x="718.5" y="-68.3" font-family="Times,serif" font-size="14.00">_layout</text>
<text text-anchor="start" x="718.5" y="-53.3" font-family="Times,serif" font-size="14.00">set_user</text>
<text text-anchor="start" x="718.5" y="-38.3" font-family="Times,serif" font-size="14.00">user_params</text>
</g>
<!-- ApplicationController&#45;&gt;UsersController -->
<g id="edge6" class="edge"><title>ApplicationController&#45;&gt;UsersController</title>
<path fill="none" stroke="black" d="M568.275,-310.972C610.862,-298.871 663.94,-278.103 701,-244 710.435,-235.318 718.617,-224.849 725.652,-213.747"/>
</g>
<!-- EmailsController -->
<g id="node9" class="node"><title>EmailsController</title>
<path fill="none" stroke="black" d="M844,-8C844,-8 930,-8 930,-8 936,-8 942,-14 942,-20 942,-20 942,-224 942,-224 942,-230 936,-236 930,-236 930,-236 844,-236 844,-236 838,-236 832,-230 832,-224 832,-224 832,-20 832,-20 832,-14 838,-8 844,-8"/>
<text text-anchor="middle" x="887" y="-220.8" font-family="Times,serif" font-size="14.00">EmailsController</text>
<polyline fill="none" stroke="black" points="832,-213 942,-213 "/>
<text text-anchor="start" x="840" y="-197.8" font-family="Times,serif" font-size="14.00">create</text>
<text text-anchor="start" x="840" y="-182.8" font-family="Times,serif" font-size="14.00">destroy</text>
<text text-anchor="start" x="840" y="-167.8" font-family="Times,serif" font-size="14.00">dont_allow</text>
<text text-anchor="start" x="840" y="-152.8" font-family="Times,serif" font-size="14.00">edit</text>
<text text-anchor="start" x="840" y="-137.8" font-family="Times,serif" font-size="14.00">index</text>
<text text-anchor="start" x="840" y="-122.8" font-family="Times,serif" font-size="14.00">new</text>
<text text-anchor="start" x="840" y="-107.8" font-family="Times,serif" font-size="14.00">show</text>
<text text-anchor="start" x="840" y="-92.8" font-family="Times,serif" font-size="14.00">update</text>
<polyline fill="none" stroke="black" points="832,-85 942,-85 "/>
<polyline fill="none" stroke="black" points="832,-61 942,-61 "/>
<text text-anchor="start" x="840" y="-45.8" font-family="Times,serif" font-size="14.00">_layout</text>
<text text-anchor="start" x="840" y="-30.8" font-family="Times,serif" font-size="14.00">email_params</text>
<text text-anchor="start" x="840" y="-15.8" font-family="Times,serif" font-size="14.00">set_email</text>
</g>
<!-- ApplicationController&#45;&gt;EmailsController -->
<g id="edge7" class="edge"><title>ApplicationController&#45;&gt;EmailsController</title>
<path fill="none" stroke="black" d="M568.319,-324.254C639.199,-319.099 748.365,-301.487 822,-244 825.477,-241.285 828.792,-238.331 831.948,-235.186"/>
</g>
</g>
</svg>
