<?xml version="1.0" encoding="UTF-8" standalone="no"?>
<!DOCTYPE svg PUBLIC "-//W3C//DTD SVG 1.1//EN"
 "http://www.w3.org/Graphics/SVG/1.1/DTD/svg11.dtd">
<!-- Generated by graphviz version 2.36.0 (20140111.2315)
 -->
<!-- Title: models_diagram Pages: 1 -->
<svg width="492pt" height="918pt"
 viewBox="0.00 0.00 492.02 918.00" xmlns="http://www.w3.org/2000/svg" xmlns:xlink="http://www.w3.org/1999/xlink">
<g id="graph0" class="graph" transform="scale(1 1) rotate(0) translate(4 914)">
<title>models_diagram</title>
<polygon fill="none" stroke="none" points="-4,4 -4,-914 488.024,-914 488.024,4 -4,4"/>
<!-- Autoreply -->
<g id="node1" class="node"><title>Autoreply</title>
<path fill="none" stroke="black" d="M60.5237,-498.5C60.5237,-498.5 167.524,-498.5 167.524,-498.5 173.524,-498.5 179.524,-504.5 179.524,-510.5 179.524,-510.5 179.524,-637.5 179.524,-637.5 179.524,-643.5 173.524,-649.5 167.524,-649.5 167.524,-649.5 60.5237,-649.5 60.5237,-649.5 54.5237,-649.5 48.5237,-643.5 48.5237,-637.5 48.5237,-637.5 48.5237,-510.5 48.5237,-510.5 48.5237,-504.5 54.5237,-498.5 60.5237,-498.5"/>
<text text-anchor="middle" x="114.024" y="-634.3" font-family="Times,serif" font-size="14.00">Autoreply</text>
<polyline fill="none" stroke="black" points="48.5237,-626.5 179.524,-626.5 "/>
<text text-anchor="start" x="56.5237" y="-611.3" font-family="Times,serif" font-size="14.00">id :INTEGER</text>
<text text-anchor="start" x="56.5237" y="-596.3" font-family="Times,serif" font-size="14.00">email_id :integer</text>
<text text-anchor="start" x="56.5237" y="-581.3" font-family="Times,serif" font-size="14.00">title :varchar</text>
<text text-anchor="start" x="56.5237" y="-566.3" font-family="Times,serif" font-size="14.00">body :text</text>
<text text-anchor="start" x="56.5237" y="-551.3" font-family="Times,serif" font-size="14.00">schedule :datetime</text>
<text text-anchor="start" x="56.5237" y="-536.3" font-family="Times,serif" font-size="14.00">created_at :datetime</text>
<text text-anchor="start" x="56.5237" y="-521.3" font-family="Times,serif" font-size="14.00">updated_at :datetime</text>
<text text-anchor="start" x="56.5237" y="-506.3" font-family="Times,serif" font-size="14.00">sent :Boolean</text>
</g>
<!-- ApplicationRecord -->
<g id="node2" class="node"><title>ApplicationRecord</title>
<ellipse fill="none" stroke="black" cx="209.024" cy="-892" rx="77.0154" ry="18"/>
<text text-anchor="middle" x="209.024" y="-888.3" font-family="Times,serif" font-size="14.00">ApplicationRecord</text>
</g>
<!-- Remind -->
<g id="node3" class="node"><title>Remind</title>
<path fill="none" stroke="black" d="M143.524,-686.5C143.524,-686.5 250.524,-686.5 250.524,-686.5 256.524,-686.5 262.524,-692.5 262.524,-698.5 262.524,-698.5 262.524,-825.5 262.524,-825.5 262.524,-831.5 256.524,-837.5 250.524,-837.5 250.524,-837.5 143.524,-837.5 143.524,-837.5 137.524,-837.5 131.524,-831.5 131.524,-825.5 131.524,-825.5 131.524,-698.5 131.524,-698.5 131.524,-692.5 137.524,-686.5 143.524,-686.5"/>
<text text-anchor="middle" x="197.024" y="-822.3" font-family="Times,serif" font-size="14.00">Remind</text>
<polyline fill="none" stroke="black" points="131.524,-814.5 262.524,-814.5 "/>
<text text-anchor="start" x="139.524" y="-799.3" font-family="Times,serif" font-size="14.00">id :INTEGER</text>
<text text-anchor="start" x="139.524" y="-784.3" font-family="Times,serif" font-size="14.00">email_id :integer</text>
<text text-anchor="start" x="139.524" y="-769.3" font-family="Times,serif" font-size="14.00">title :varchar</text>
<text text-anchor="start" x="139.524" y="-754.3" font-family="Times,serif" font-size="14.00">body :text</text>
<text text-anchor="start" x="139.524" y="-739.3" font-family="Times,serif" font-size="14.00">schedule :datetime</text>
<text text-anchor="start" x="139.524" y="-724.3" font-family="Times,serif" font-size="14.00">created_at :datetime</text>
<text text-anchor="start" x="139.524" y="-709.3" font-family="Times,serif" font-size="14.00">updated_at :datetime</text>
<text text-anchor="start" x="139.524" y="-694.3" font-family="Times,serif" font-size="14.00">sent :Boolean</text>
</g>
<!-- ApplicationRecord&#45;&gt;Remind -->
<g id="edge3" class="edge"><title>ApplicationRecord&#45;&gt;Remind</title>
<path fill="none" stroke="black" d="M207.43,-874.003C206.519,-864.278 205.304,-851.326 204.028,-837.709"/>
</g>
<!-- User -->
<g id="node4" class="node"><title>User</title>
<path fill="none" stroke="black" d="M175.024,-1C175.024,-1 351.024,-1 351.024,-1 357.024,-1 363.024,-7 363.024,-13 363.024,-13 363.024,-275 363.024,-275 363.024,-281 357.024,-287 351.024,-287 351.024,-287 175.024,-287 175.024,-287 169.024,-287 163.024,-281 163.024,-275 163.024,-275 163.024,-13 163.024,-13 163.024,-7 169.024,-1 175.024,-1"/>
<text text-anchor="middle" x="263.024" y="-271.8" font-family="Times,serif" font-size="14.00">User</text>
<polyline fill="none" stroke="black" points="163.024,-264 363.024,-264 "/>
<text text-anchor="start" x="171.024" y="-248.8" font-family="Times,serif" font-size="14.00">id :INTEGER</text>
<text text-anchor="start" x="171.024" y="-233.8" font-family="Times,serif" font-size="14.00">email :varchar</text>
<text text-anchor="start" x="171.024" y="-218.8" font-family="Times,serif" font-size="14.00">encrypted_password :varchar</text>
<text text-anchor="start" x="171.024" y="-203.8" font-family="Times,serif" font-size="14.00">reset_password_token :varchar</text>
<text text-anchor="start" x="171.024" y="-188.8" font-family="Times,serif" font-size="14.00">reset_password_sent_at :datetime</text>
<text text-anchor="start" x="171.024" y="-173.8" font-family="Times,serif" font-size="14.00">remember_created_at :datetime</text>
<text text-anchor="start" x="171.024" y="-158.8" font-family="Times,serif" font-size="14.00">sign_in_count :integer</text>
<text text-anchor="start" x="171.024" y="-143.8" font-family="Times,serif" font-size="14.00">current_sign_in_at :datetime</text>
<text text-anchor="start" x="171.024" y="-128.8" font-family="Times,serif" font-size="14.00">last_sign_in_at :datetime</text>
<text text-anchor="start" x="171.024" y="-113.8" font-family="Times,serif" font-size="14.00">current_sign_in_ip :varchar</text>
<text text-anchor="start" x="171.024" y="-98.8" font-family="Times,serif" font-size="14.00">last_sign_in_ip :varchar</text>
<text text-anchor="start" x="171.024" y="-83.8" font-family="Times,serif" font-size="14.00">created_at :datetime</text>
<text text-anchor="start" x="171.024" y="-68.8" font-family="Times,serif" font-size="14.00">updated_at :datetime</text>
<text text-anchor="start" x="171.024" y="-53.8" font-family="Times,serif" font-size="14.00">confirmation_token :varchar</text>
<text text-anchor="start" x="171.024" y="-38.8" font-family="Times,serif" font-size="14.00">confirmed_at :datetime</text>
<text text-anchor="start" x="171.024" y="-23.8" font-family="Times,serif" font-size="14.00">confirmation_sent_at :datetime</text>
<text text-anchor="start" x="171.024" y="-8.8" font-family="Times,serif" font-size="14.00">admin :Boolean</text>
</g>
<!-- ApplicationRecord&#45;&gt;User -->
<g id="edge5" class="edge"><title>ApplicationRecord&#45;&gt;User</title>
<path fill="none" stroke="black" d="M246.583,-876.093C263.803,-867.431 283.014,-854.854 295.024,-838 344.71,-768.277 327.634,-735.099 337.024,-650 352.915,-505.985 365.241,-466.115 337.024,-324 334.601,-311.796 331.332,-299.381 327.513,-287.07"/>
</g>
<!-- Profile -->
<g id="node5" class="node"><title>Profile</title>
<path fill="none" stroke="black" d="M209.524,-325C209.524,-325 316.524,-325 316.524,-325 322.524,-325 328.524,-331 328.524,-337 328.524,-337 328.524,-449 328.524,-449 328.524,-455 322.524,-461 316.524,-461 316.524,-461 209.524,-461 209.524,-461 203.524,-461 197.524,-455 197.524,-449 197.524,-449 197.524,-337 197.524,-337 197.524,-331 203.524,-325 209.524,-325"/>
<text text-anchor="middle" x="263.024" y="-445.8" font-family="Times,serif" font-size="14.00">Profile</text>
<polyline fill="none" stroke="black" points="197.524,-438 328.524,-438 "/>
<text text-anchor="start" x="205.524" y="-422.8" font-family="Times,serif" font-size="14.00">id :INTEGER</text>
<text text-anchor="start" x="205.524" y="-407.8" font-family="Times,serif" font-size="14.00">name :varchar</text>
<text text-anchor="start" x="205.524" y="-392.8" font-family="Times,serif" font-size="14.00">lastname :varchar</text>
<text text-anchor="start" x="205.524" y="-377.8" font-family="Times,serif" font-size="14.00">age :integer</text>
<text text-anchor="start" x="205.524" y="-362.8" font-family="Times,serif" font-size="14.00">user_id :integer</text>
<text text-anchor="start" x="205.524" y="-347.8" font-family="Times,serif" font-size="14.00">created_at :datetime</text>
<text text-anchor="start" x="205.524" y="-332.8" font-family="Times,serif" font-size="14.00">updated_at :datetime</text>
</g>
<!-- ApplicationRecord&#45;&gt;Profile -->
<g id="edge8" class="edge"><title>ApplicationRecord&#45;&gt;Profile</title>
<path fill="none" stroke="black" d="M173.727,-875.754C156.337,-866.814 136.13,-854.093 122.024,-838 19.4926,-721.027 -44.6615,-629.119 39.0237,-498 73.6246,-443.787 144.582,-417.399 197.411,-404.842"/>
</g>
<!-- Email -->
<g id="node6" class="node"><title>Email</title>
<path fill="none" stroke="black" d="M209.524,-521C209.524,-521 316.524,-521 316.524,-521 322.524,-521 328.524,-527 328.524,-533 328.524,-533 328.524,-615 328.524,-615 328.524,-621 322.524,-627 316.524,-627 316.524,-627 209.524,-627 209.524,-627 203.524,-627 197.524,-621 197.524,-615 197.524,-615 197.524,-533 197.524,-533 197.524,-527 203.524,-521 209.524,-521"/>
<text text-anchor="middle" x="263.024" y="-611.8" font-family="Times,serif" font-size="14.00">Email</text>
<polyline fill="none" stroke="black" points="197.524,-604 328.524,-604 "/>
<text text-anchor="start" x="205.524" y="-588.8" font-family="Times,serif" font-size="14.00">id :INTEGER</text>
<text text-anchor="start" x="205.524" y="-573.8" font-family="Times,serif" font-size="14.00">email :varchar</text>
<text text-anchor="start" x="205.524" y="-558.8" font-family="Times,serif" font-size="14.00">profile_id :integer</text>
<text text-anchor="start" x="205.524" y="-543.8" font-family="Times,serif" font-size="14.00">created_at :datetime</text>
<text text-anchor="start" x="205.524" y="-528.8" font-family="Times,serif" font-size="14.00">updated_at :datetime</text>
</g>
<!-- ApplicationRecord&#45;&gt;Email -->
<g id="edge11" class="edge"><title>ApplicationRecord&#45;&gt;Email</title>
<path fill="none" stroke="black" d="M236.906,-875.086C249.845,-866.044 263.913,-853.434 271.024,-838 302.182,-770.373 290.419,-682.242 277.76,-627.134"/>
</g>
<!-- Remind&#45;&gt;Autoreply -->
<g id="edge1" class="edge"><title>Remind&#45;&gt;Autoreply</title>
<path fill="none" stroke="black" d="M163.743,-686.418C158.331,-674.29 152.724,-661.727 147.312,-649.598"/>
</g>
<!-- Remind&#45;&gt;Email -->
<g id="edge2" class="edge"><title>Remind&#45;&gt;Email</title>
<path fill="none" stroke="#226118" d="M216.857,-686.418C222.492,-669.93 228.706,-652.637 234.722,-636.727"/>
<polygon fill="#226118" stroke="#226118" points="238.132,-637.609 238.436,-627.018 231.594,-635.108 238.132,-637.609"/>
</g>
<!-- User&#45;&gt;Profile -->
<g id="edge4" class="edge"><title>User&#45;&gt;Profile</title>
<path fill="none" stroke="#b7299d" d="M269.626,-295.666C269.548,-302.821 269.437,-309.848 269.295,-316.645"/>
<ellipse fill="none" stroke="#b7299d" cx="269.667" cy="-291.214" rx="4" ry="4"/>
<ellipse fill="#b7299d" stroke="#b7299d" cx="269.199" cy="-320.833" rx="4" ry="4"/>
</g>
<!-- Profile&#45;&gt;User -->
<g id="edge6" class="edge"><title>Profile&#45;&gt;User</title>
<path fill="none" stroke="#b7130e" d="M256.941,-324.832C256.717,-316.032 256.55,-306.747 256.439,-297.22"/>
<polygon fill="#b7130e" stroke="#b7130e" points="259.938,-297.18 256.343,-287.214 252.939,-297.247 259.938,-297.18"/>
</g>
<!-- Profile&#45;&gt;Email -->
<g id="edge7" class="edge"><title>Profile&#45;&gt;Email</title>
<path fill="none" stroke="#d9b178" d="M269.695,-469.036C269.855,-483.605 269.771,-498.7 269.443,-512.72"/>
<ellipse fill="none" stroke="#d9b178" cx="269.637" cy="-465.006" rx="4" ry="4"/>
<ellipse fill="#d9b178" stroke="#d9b178" cx="269.334" cy="-516.746" rx="4" ry="4"/>
</g>
<!-- Email&#45;&gt;Remind -->
<g id="edge10" class="edge"><title>Email&#45;&gt;Remind</title>
<path fill="none" stroke="#57022e" d="M248.155,-634.806C243.717,-648.259 238.688,-662.779 233.547,-677.014"/>
<ellipse fill="none" stroke="#57022e" cx="249.455" cy="-630.821" rx="4.00001" ry="4.00001"/>
<polygon fill="#57022e" stroke="#57022e" points="233.544,-677.023 225.891,-684.877 231.831,-681.721 230.119,-686.418 230.119,-686.418 230.119,-686.418 231.831,-681.721 234.347,-687.959 233.544,-677.023 233.544,-677.023"/>
</g>
<!-- Email&#45;&gt;Profile -->
<g id="edge9" class="edge"><title>Email&#45;&gt;Profile</title>
<path fill="none" stroke="#06bd39" d="M256.823,-520.745C256.34,-505.277 256.175,-488.003 256.33,-471.306"/>
<polygon fill="#06bd39" stroke="#06bd39" points="259.833,-471.052 256.467,-461.006 252.834,-470.959 259.833,-471.052"/>
</g>
<!-- Contact -->
<g id="node7" class="node"><title>Contact</title>
<polygon fill="none" stroke="black" points="385.524,-739 385.524,-785 444.524,-785 444.524,-739 385.524,-739"/>
<text text-anchor="middle" x="415.024" y="-769.8" font-family="Times,serif" font-size="14.00">Contact</text>
<polyline fill="none" stroke="black" points="385.524,-762 444.524,-762 "/>
<text text-anchor="middle" x="415.024" y="-746.8" font-family="Times,serif" font-size="14.00"> </text>
</g>
<!-- MailForm::Base -->
<g id="node8" class="node"><title>MailForm::Base</title>
<ellipse fill="none" stroke="black" cx="415.024" cy="-892" rx="69.3156" ry="18"/>
<text text-anchor="middle" x="415.024" y="-888.3" font-family="Times,serif" font-size="14.00">MailForm::Base</text>
</g>
<!-- MailForm::Base&#45;&gt;Contact -->
<g id="edge12" class="edge"><title>MailForm::Base&#45;&gt;Contact</title>
<path fill="none" stroke="black" d="M415.024,-873.737C415.024,-850.809 415.024,-810.283 415.024,-785.132"/>
</g>
</g>
</svg>
