<?xml version="1.0" standalone="no"?>
<!DOCTYPE svg PUBLIC "-//W3C//DTD SVG 20010904//EN"
 "http://www.w3.org/TR/2001/REC-SVG-20010904/DTD/svg10.dtd">
<svg version="1.0" xmlns="http://www.w3.org/2000/svg"
 width="256.000000pt" height="256.000000pt" viewBox="0 0 256.000000 256.000000"
 preserveAspectRatio="xMidYMid meet">
<metadata>
Created by potrace 1.11, written by Peter Selinger 2001-2013
</metadata>
<g transform="translate(0.000000,256.000000) scale(0.100000,-0.100000)"
fill="#000000" stroke="none">
<path d="M59 2545 c-62 -34 -59 6 -59 -791 0 -805 -2 -776 65 -808 28 -14 91
-16 452 -16 l418 0 -2 -102 c-5 -288 129 -539 373 -698 142 -93 278 -130 454
-125 120 3 130 5 216 30 297 86 529 351 573 657 12 78 6 241 -9 299 -7 24 -14
51 -16 59 -1 8 -11 35 -21 60 -72 177 -194 317 -353 408 l-55 32 -1 462 c0
503 1 493 -57 528 -31 19 -59 20 -992 20 -809 -1 -964 -3 -986 -15z"/>
</g>
</svg>
